<svg xmlns="http://www.w3.org/2000/svg" viewBox="0 0 24 24">
    <defs>
        <clipPath id="squircle">
            <path d="M 0 12 C 0 3, 3 0, 12 0 S24 3, 24 12, 21 24 12 24, 0 21, 0 12"/>
        </clipPath>
        <linearGradient id="background" gradientTransform="rotate(45)">
            <stop offset="0%" stop-color="#FFC107"/>
            <stop offset="100%" stop-color="#FF9800"/>
        </linearGradient>
        <filter id="shadow">
            <feDropShadow dx="0" dy="0.2" stdDeviation="0.2" flood-color="rgba(0, 0, 0, 0.2)" />
        </filter>
    </defs>

    <rect fill="url(#background)" x="0" y="0" width="24" height="24" clip-path="url(#squircle)" />
    <g transform="translate(2.4, 2.4) scale(0.8)">
        <path fill="#fff" filter="url(#shadow)" d="M12,2A7,7 0 0,1 19,9C19,11.38 17.81,13.47 16,14.74V17A1,1 0 0,1 15,18H9A1,1 0 0,1 8,17V14.74C6.19,13.47 5,11.38 5,9A7,7 0 0,1 12,2M9,21V20H15V21A1,1 0 0,1 14,22H10A1,1 0 0,1 9,21M12,4A5,5 0 0,0 7,9C7,11.05 8.23,12.81 10,13.58V16H14V13.58C15.77,12.81 17,11.05 17,9A5,5 0 0,0 12,4Z"/>
    </g>
</svg>
